<svg id="Layer_1" data-name="Layer 1" xmlns="http://www.w3.org/2000/svg" viewBox="0 0 730.58 672.91"><path d="M488.31,531.12c25.27-51.06,25.27-87.75,25.27-87.75-11.25,4.15-18.34,6.05-13.32-29.43s-2-49.67-2-49.67-8.43,19.38-13.85-1.15c-6.58-53.2-26.77-66.81-26.77-66.81,6.81,21.81-5.54,11.88-5.54,11.88l-41.3-20.88c14.19-1.73,13.27-6.46,13.27-6.46-56.54-7.39-72,36.92-72,36.92,36.69-3.23,44.3,18.92,44.3,18.92s4.86-30.71,17.54-17.07C478.28,388.85,425,473.15,425,473.15,459.58,511.39,488.31,531.12,488.31,531.12Z" transform="translate(-2 -3)"/><path d="M412.12,637s-51.19,29.81-107.61,36.73c-82,9-120.12-11.08-157.5-37.38s-65.43-69.23-77.54-87.58S46.28,568.5,46.28,568.5C22.74,548.08,8.89,517.27,30.7,452.89S5.08,442.15,5.08,442.15c-15.57-45.69,31.33-92.42,63.18-129.8s-21.29-17-21.29-17c31.84-59.72,130.15-56.25,130.15-56.25-16.61-84.81-32-39.81-32-39.81-8-32.37,4.68-48.46,4.68-48.46s3.17-6.29,20.59-30.58-17.94-19-17.94-19c12.63-22.79,35.77-27.58,35.77-27.58s21.92-3.4,37.15-10.44c28.16-12.46-3.69-24-3.69-24,5.08-2.77,18-6,33.69-.46A66.29,66.29,0,0,0,284,42.46c43.84-15.69-25.39-39.14-25.39-39.14C340.74-1.2,360.12,43.39,360.12,43.39c24.93,40.06,48.93,55.38,48.93,55.38-.47,11.08,3.23,36.46,3.23,36.46,37.84,68.77-5.08,70.62-5.08,70.62,10.61-18.46-12-35.54-12-35.54s-35.08-31.39-46.62-13.39c-11.53,29.08-4.15,52.16-4.15,52.16C320.89,210,325.51,150,325.51,150c-15.23,2.31-23.54-4.61-23.54-4.61,35.54-5.08,5.08-27.24,5.08-27.24s-30.93-31.84-59.54,18.47c-28.16,62.3,0,78,0,78,68.3,73.84,44.3,103.38,44.3,103.38,14.31,46.62,129.24,160.15,129.24,160.15,192,191.54,311.53,142.62,311.53,142.62s-74,65.42-117.92,40.15C582.47,644.65,534,671,534,671s-41.43-47.77-101.2-41.88c0,0,4.16-69.58-80.76-62,0,0,3.69-17.66-45.12-22.85,0,0,1.73-73.73-75.81-85.85,0,0,12.81-60.23-18.69-105.23,0,0-107.31,37-89.65,113.89s92.77,106.27,105.57,109.73,58.5,22.15,115.27-4.5c0,0,86.89-10,82,57.81C425.66,630.12,422.16,633.54,412.12,637Z" transform="translate(-2 -3)"/></svg>